<?xml version="1.0" encoding="UTF-8"?>
<svg id="Layer_2" data-name="Layer 2" xmlns="http://www.w3.org/2000/svg" viewBox="0 0 384.21 168.11">
  <defs>
    <style>
      .cls-1 {
        fill: #bc2a3a;
      }

      .cls-1, .cls-2, .cls-3, .cls-4, .cls-5 {
        stroke-width: 0px;
      }

      .cls-2 {
        fill: #2a292d;
      }

      .cls-3 {
        fill: #f1983e;
      }

      .cls-4 {
        fill: #1676b6;
      }

      .cls-5 {
        fill: #208e53;
      }
    </style>
  </defs>
  <g id="Layer_1-2" data-name="Layer 1">
    <path class="cls-2" d="m73.78.08c7.79.19,16.07.38,24.36.59,2.53.06,2.65.26,2.21,2.78-1.66,9.51-6.73,16.37-15.71,20.14-3.76,1.58-7.79,1.95-11.82,1.98-7.65.06-15.3-.09-22.95.05-7.14.13-13.47,2.63-18.55,7.7-9.38,9.36-8.16,23.73,2.6,31.85,4.81,3.63,10.36,5.23,16.29,5.72,2.1.18,4.21.31,6.29.65,17.31,2.84,30.39,11.71,38.22,27.57,8.79,17.8,4.61,40.18-9.68,54.02-6.25,6.05-13.43,10.48-21.85,12.71-5.28,1.4-10.74,1.69-16.17,1.92-15,.63-30.01.24-45.01.24-1.42,0-1.9-.52-1.89-1.88.08-6.99,3.23-12.49,8.26-17.06,4.7-4.27,10.37-6.1,16.62-6.57,7.21-.54,14.41-.07,21.61.11,7.64.2,14.56-1.32,20.29-6.81,9.63-9.22,9.52-24.52-.32-33.54-3.73-3.42-8.06-5.54-13.06-6.24-4.9-.69-9.83-1.22-14.72-1.97-9.62-1.47-17.61-6.18-24.48-12.83-7.55-7.32-12.25-16.21-13.78-26.67-1.92-13.09,1.35-24.85,9.65-35.06C19.05,8.55,30.62,2.19,44.62.69,52.91-.19,61.27.03,69.61.08c1.23,0,2.45,0,4.18,0Z"/>
    <path class="cls-2" d="m269.35,96.85c0-22.75,0-45.5,0-68.26,0-2.5-.35-2.83-2.86-2.99-6.13-.38-12.26-.03-18.38-.02-2.65,0-5.3-.12-7.92-.53-9.58-1.49-15.97-6.93-19.48-15.87-.88-2.25-1.41-4.59-1.84-6.96-.28-1.56.25-2.18,1.85-2.23.34,0,.69,0,1.03,0,40.11,0,80.23,0,120.34,0,2.48,0,2.67.21,2.53,2.7-.64,11.5-10.11,21.33-21.6,22.37-8.71.78-17.44.46-26.17.55-2.43.02-2.56.12-2.57,2.6-.09,37.51.04,75.02.31,112.53.04,6.27-1.32,12.06-5.24,17.08-4.68,5.99-10.72,9.48-18.41,9.9-1.07.06-1.55-.44-1.6-1.45-.02-.44,0-.88,0-1.32,0-22.7,0-45.41,0-68.11Z"/>
    <path class="cls-2" d="m358.79,84.19c0-27.12,0-54.24,0-81.36,0-2.23.09-2.32,2.34-2.2,11.13.6,20.25,8.9,22.42,20.28.63,3.31.62,6.63.61,9.96-.09,36.39-.14,72.78.04,109.16.03,6.85-1.46,13.23-5.76,18.7-4.62,5.87-10.8,8.7-18.19,9.05-1,.05-1.47-.37-1.46-1.36,0-.39,0-.78,0-1.18,0-27.02,0-54.04,0-81.07Z"/>
    <path class="cls-1" d="m164.13.81c6.25-.2,14.31,4.74,15.57,12.11.3,1.73.89,3.42,1.64,5.02,2.43,5.2,8.18,8.2,13.85,7.19,2.12-.38,4.2-.98,6.32-1.37,8.62-1.6,17.86,6.4,17.65,15.25-.23,9.67-8.73,16.79-18,14.75-6.32-1.39-10.83-5.09-12.43-11.71-.68-2.82-1.44-5.65-3.43-7.87-3.77-4.2-8.47-5.39-13.89-4.06-1.29.32-2.56.69-3.85.95-7.63,1.53-16-3.99-17.9-11.77-1.82-7.45,3-15.76,10.42-17.94,1.38-.41,2.78-.57,4.05-.55Z"/>
    <path class="cls-5" d="m124.92,114.39c6.02-.08,13.96,4.53,15.4,12.18.25,1.34.69,2.66,1.18,3.94,2.46,6.33,8.66,9.51,15.5,7.99,1.29-.29,2.56-.66,3.85-.95,7.7-1.73,16.13,3.39,18.31,11.11,2.08,7.36-2.47,15.78-9.77,18.33-8.06,2.82-18.34-2.77-20.08-11-.33-1.58-.79-3.15-1.38-4.64-2.56-6.39-8.85-9.33-16.09-7.59-.95.23-1.9.46-2.84.74-7.77,2.29-18.85-4.23-19.15-14.53-.24-8.24,7.01-15.84,15.07-15.59Z"/>
    <path class="cls-3" d="m219.17,84.94c-.34,5.99-2.92,10.79-8.28,13.63-5.42,2.87-10.81,2.05-15.85-1.29-3.38-2.24-5.53-5.31-6.39-9.32-.81-3.76-2.23-7.22-5.51-9.58-3.25-2.34-6.85-3.04-10.75-2.23-1.34.28-2.69.58-4,.99-6.57,2.1-16.13-2.77-18.53-10.57-2.23-7.24,1.77-15.77,9.08-18.53,5.99-2.26,11.34-.69,16.14,3.3,2.71,2.25,4.04,5.21,4.8,8.55,1,4.38,3.01,8.06,7.24,10.17,2.89,1.44,5.88,1.77,9,1.04,1.19-.28,2.4-.52,3.56-.89,7.31-2.36,17.61,3.2,19.18,12.06.15.86.21,1.75.32,2.67Z"/>
    <path class="cls-4" d="m164.78,121.64c-5.6.26-13.94-4.04-15.55-12.14-.64-3.25-1.77-6.34-4.37-8.63-3.62-3.19-7.8-4.13-12.46-2.98-1.09.27-2.21.47-3.27.83-6.54,2.25-16.99-2.84-18.76-11.69-1.21-6.05.86-11.08,5.46-14.95,4.6-3.87,9.91-4.23,15.33-1.88,4.91,2.13,8.16,5.76,9.3,11.15.77,3.67,2.25,7,5.47,9.26,3.32,2.34,6.97,2.99,10.91,2.06,1.24-.29,2.47-.61,3.71-.91,10.8-2.62,21.05,7.22,18.61,18.04-1.54,6.82-7.21,11.92-14.37,11.84Z"/>
    <path class="cls-1" d="m218.82,129.49c-.07,8.71-6.82,15.62-15.12,15.5-8.68-.13-15.48-7.05-15.37-15.64.11-8.5,6.9-15.26,15.29-15.19,8.38.07,15.28,7.02,15.21,15.33Z"/>
    <path class="cls-5" d="m125.14,54.22c-8.4-.05-15.32-7-15.22-15.3.1-8.62,6.97-15.42,15.49-15.34,8.36.08,15.22,7.05,15.16,15.39-.06,8.47-6.97,15.3-15.43,15.25Z"/>
  </g>
</svg>