<?xml version="1.0" encoding="UTF-8"?>
<svg id="Layer_2" data-name="Layer 2" xmlns="http://www.w3.org/2000/svg" viewBox="0 0 109.33 166.93">
  <defs>
    <style>
      .cls-1 {
        fill: #bc2a3a;
      }

      .cls-1, .cls-2, .cls-3, .cls-4 {
        stroke-width: 0px;
      }

      .cls-2 {
        fill: #f1983e;
      }

      .cls-3 {
        fill: #1676b6;
      }

      .cls-4 {
        fill: #208e53;
      }
    </style>
  </defs>
  <g id="Layer_1-2" data-name="Layer 1">
    <path class="cls-1" d="m54.29,0c6.25-.2,14.31,4.74,15.57,12.11.3,1.73.89,3.42,1.64,5.02,2.43,5.2,8.18,8.2,13.85,7.19,2.12-.38,4.2-.98,6.32-1.37,8.62-1.6,17.86,6.4,17.65,15.25-.23,9.67-8.73,16.79-18,14.75-6.32-1.39-10.83-5.09-12.43-11.71-.68-2.82-1.44-5.65-3.43-7.87-3.77-4.2-8.47-5.39-13.89-4.06-1.29.32-2.56.69-3.85.95-7.63,1.53-16-3.99-17.9-11.77-1.82-7.45,3-15.76,10.42-17.94C51.62.15,53.02-.02,54.29,0Z"/>
    <path class="cls-4" d="m15.08,113.58c6.02-.08,13.96,4.53,15.4,12.18.25,1.34.69,2.66,1.18,3.94,2.46,6.33,8.66,9.51,15.5,7.99,1.29-.29,2.56-.66,3.85-.95,7.7-1.73,16.13,3.39,18.31,11.11,2.08,7.36-2.47,15.78-9.77,18.33-8.06,2.82-18.34-2.77-20.08-11-.33-1.58-.79-3.15-1.38-4.64-2.56-6.39-8.85-9.33-16.09-7.59-.95.23-1.9.46-2.84.74C11.38,145.99.31,139.47,0,129.18c-.24-8.24,7.01-15.84,15.07-15.59Z"/>
    <path class="cls-2" d="m109.33,84.13c-.34,5.99-2.92,10.79-8.28,13.63-5.42,2.87-10.81,2.05-15.85-1.29-3.38-2.24-5.53-5.31-6.39-9.32-.81-3.76-2.23-7.22-5.51-9.58-3.25-2.34-6.85-3.04-10.75-2.23-1.34.28-2.69.58-4,.99-6.57,2.1-16.13-2.77-18.53-10.57-2.23-7.24,1.77-15.77,9.08-18.53,5.99-2.26,11.34-.69,16.14,3.3,2.71,2.25,4.04,5.21,4.8,8.55,1,4.38,3.01,8.06,7.24,10.17,2.89,1.44,5.88,1.77,9,1.04,1.19-.28,2.4-.52,3.56-.89,7.31-2.36,17.61,3.2,19.18,12.06.15.86.21,1.75.32,2.67Z"/>
    <path class="cls-3" d="m54.94,120.83c-5.6.26-13.94-4.04-15.55-12.14-.64-3.25-1.77-6.34-4.37-8.63-3.62-3.19-7.8-4.13-12.46-2.98-1.09.27-2.21.47-3.27.83-6.54,2.25-16.99-2.84-18.76-11.69-1.21-6.05.86-11.08,5.46-14.95,4.6-3.87,9.91-4.23,15.33-1.88,4.91,2.13,8.16,5.76,9.3,11.15.77,3.67,2.25,7,5.47,9.26,3.32,2.34,6.97,2.99,10.91,2.06,1.24-.29,2.47-.61,3.71-.91,10.8-2.62,21.05,7.22,18.61,18.04-1.54,6.82-7.21,11.92-14.37,11.84Z"/>
    <path class="cls-1" d="m108.99,128.68c-.07,8.71-6.82,15.62-15.12,15.5-8.68-.13-15.48-7.05-15.37-15.64.11-8.5,6.9-15.26,15.29-15.19,8.38.07,15.28,7.02,15.21,15.33Z"/>
    <path class="cls-4" d="m15.31,53.41C6.91,53.36,0,46.41.09,38.11c.1-8.62,6.97-15.42,15.49-15.34,8.36.08,15.22,7.05,15.16,15.39-.06,8.47-6.97,15.3-15.43,15.25Z"/>
  </g>
</svg>